<mxfile host="65bd71144e">
    <diagram id="ygwOTp6bHpm_pDIYjT8Z" name="ページ1">
        <mxGraphModel dx="977" dy="1294" grid="1" gridSize="10" guides="1" tooltips="1" connect="1" arrows="1" fold="1" page="1" pageScale="1" pageWidth="827" pageHeight="1169" math="0" shadow="0">
            <root>
                <mxCell id="qtmVg_TJgR1GC3pNEV_o-0"/>
                <mxCell id="qtmVg_TJgR1GC3pNEV_o-1" parent="qtmVg_TJgR1GC3pNEV_o-0"/>
                <mxCell id="qtmVg_TJgR1GC3pNEV_o-12" value="Service :&lt;br&gt;&amp;nbsp; info&lt;br&gt;Context :&lt;br&gt;&amp;nbsp; authControl" style="shape=note;whiteSpace=wrap;html=1;backgroundOutline=1;darkOpacity=0.05;fillColor=none;align=left;" parent="qtmVg_TJgR1GC3pNEV_o-1" vertex="1">
                    <mxGeometry width="92" height="100" as="geometry"/>
                </mxCell>
                <mxCell id="qtmVg_TJgR1GC3pNEV_o-30" value="DB&lt;br&gt;権限マッピングデータ" style="shape=cylinder3;whiteSpace=wrap;html=1;boundedLbl=1;backgroundOutline=1;size=15;fillColor=none;" parent="qtmVg_TJgR1GC3pNEV_o-1" vertex="1">
                    <mxGeometry x="745.5" y="195" width="90" height="90" as="geometry"/>
                </mxCell>
                <mxCell id="qtmVg_TJgR1GC3pNEV_o-31" value="DB&lt;br&gt;その他情報" style="shape=cylinder3;whiteSpace=wrap;html=1;boundedLbl=1;backgroundOutline=1;size=15;fillColor=none;" parent="qtmVg_TJgR1GC3pNEV_o-1" vertex="1">
                    <mxGeometry x="596.5" y="195" width="90" height="90" as="geometry"/>
                </mxCell>
                <mxCell id="qtmVg_TJgR1GC3pNEV_o-32" value="infra 層" style="swimlane;fillColor=none;" parent="qtmVg_TJgR1GC3pNEV_o-1" vertex="1">
                    <mxGeometry x="545.5" y="350" width="341" height="200" as="geometry">
                        <mxRectangle x="611" y="280" width="70" height="23" as="alternateBounds"/>
                    </mxGeometry>
                </mxCell>
                <mxCell id="qtmVg_TJgR1GC3pNEV_o-33" style="edgeStyle=none;html=1;exitX=0.5;exitY=1;exitDx=0;exitDy=0;entryX=0.5;entryY=0;entryDx=0;entryDy=0;dashed=1;" parent="qtmVg_TJgR1GC3pNEV_o-32" edge="1">
                    <mxGeometry relative="1" as="geometry">
                        <mxPoint x="63.5" y="79" as="sourcePoint"/>
                    </mxGeometry>
                </mxCell>
                <mxCell id="qtmVg_TJgR1GC3pNEV_o-34" style="edgeStyle=none;html=1;exitX=0.5;exitY=0;exitDx=0;exitDy=0;dashed=1;entryX=0.5;entryY=1;entryDx=0;entryDy=0;" parent="qtmVg_TJgR1GC3pNEV_o-32" edge="1">
                    <mxGeometry relative="1" as="geometry">
                        <mxPoint x="63.5" y="157.5" as="targetPoint"/>
                    </mxGeometry>
                </mxCell>
                <mxCell id="qtmVg_TJgR1GC3pNEV_o-35" value="PIP&lt;br&gt;権限判断に必要なその他情報を取得" style="rounded=1;whiteSpace=wrap;html=1;fillColor=none;" parent="qtmVg_TJgR1GC3pNEV_o-32" vertex="1">
                    <mxGeometry x="11" y="80" width="120" height="60" as="geometry"/>
                </mxCell>
                <mxCell id="qtmVg_TJgR1GC3pNEV_o-36" value="PRP&lt;br&gt;権限マッピングデータを取得" style="rounded=1;whiteSpace=wrap;html=1;fillColor=none;" parent="qtmVg_TJgR1GC3pNEV_o-32" vertex="1">
                    <mxGeometry x="200" y="80" width="120" height="60" as="geometry"/>
                </mxCell>
                <mxCell id="qtmVg_TJgR1GC3pNEV_o-37" value="Presentation 層" style="swimlane;fillColor=none;" parent="qtmVg_TJgR1GC3pNEV_o-1" vertex="1">
                    <mxGeometry x="101.5" y="175" width="254" height="130" as="geometry">
                        <mxRectangle x="611" y="280" width="70" height="23" as="alternateBounds"/>
                    </mxGeometry>
                </mxCell>
                <mxCell id="qtmVg_TJgR1GC3pNEV_o-38" style="edgeStyle=none;html=1;exitX=0.5;exitY=1;exitDx=0;exitDy=0;entryX=0.5;entryY=0;entryDx=0;entryDy=0;dashed=1;" parent="qtmVg_TJgR1GC3pNEV_o-37" edge="1">
                    <mxGeometry relative="1" as="geometry">
                        <mxPoint x="63.5" y="79" as="sourcePoint"/>
                    </mxGeometry>
                </mxCell>
                <mxCell id="qtmVg_TJgR1GC3pNEV_o-39" style="edgeStyle=none;html=1;exitX=0.5;exitY=0;exitDx=0;exitDy=0;dashed=1;entryX=0.5;entryY=1;entryDx=0;entryDy=0;" parent="qtmVg_TJgR1GC3pNEV_o-37" edge="1">
                    <mxGeometry relative="1" as="geometry">
                        <mxPoint x="63.5" y="157.5" as="targetPoint"/>
                    </mxGeometry>
                </mxCell>
                <mxCell id="qtmVg_TJgR1GC3pNEV_o-40" value="PEP&lt;br&gt;Yes/No に対応した処理" style="rounded=1;whiteSpace=wrap;html=1;fillColor=none;" parent="qtmVg_TJgR1GC3pNEV_o-37" vertex="1">
                    <mxGeometry x="67" y="45" width="120" height="60" as="geometry"/>
                </mxCell>
                <mxCell id="qtmVg_TJgR1GC3pNEV_o-41" value="Usecase 層" style="swimlane;fillColor=none;" parent="qtmVg_TJgR1GC3pNEV_o-1" vertex="1">
                    <mxGeometry x="150" y="350" width="360" height="200" as="geometry">
                        <mxRectangle x="611" y="280" width="70" height="23" as="alternateBounds"/>
                    </mxGeometry>
                </mxCell>
                <mxCell id="qtmVg_TJgR1GC3pNEV_o-42" style="edgeStyle=none;html=1;exitX=0.5;exitY=1;exitDx=0;exitDy=0;entryX=0.5;entryY=0;entryDx=0;entryDy=0;dashed=1;" parent="qtmVg_TJgR1GC3pNEV_o-41" edge="1">
                    <mxGeometry relative="1" as="geometry">
                        <mxPoint x="63.5" y="79" as="sourcePoint"/>
                    </mxGeometry>
                </mxCell>
                <mxCell id="qtmVg_TJgR1GC3pNEV_o-43" style="edgeStyle=none;html=1;exitX=0.5;exitY=0;exitDx=0;exitDy=0;dashed=1;entryX=0.5;entryY=1;entryDx=0;entryDy=0;" parent="qtmVg_TJgR1GC3pNEV_o-41" edge="1">
                    <mxGeometry relative="1" as="geometry">
                        <mxPoint x="63.5" y="157.5" as="targetPoint"/>
                    </mxGeometry>
                </mxCell>
                <mxCell id="qtmVg_TJgR1GC3pNEV_o-44" value="PAP&lt;br&gt;権限を管理する" style="rounded=1;whiteSpace=wrap;html=1;fillColor=none;" parent="qtmVg_TJgR1GC3pNEV_o-41" vertex="1">
                    <mxGeometry x="199.5" y="70" width="120" height="60" as="geometry"/>
                </mxCell>
                <mxCell id="qtmVg_TJgR1GC3pNEV_o-45" value="PDP&lt;br&gt;Yse/No を判断" style="rounded=1;whiteSpace=wrap;html=1;fillColor=none;" parent="qtmVg_TJgR1GC3pNEV_o-41" vertex="1">
                    <mxGeometry x="59.5" y="70" width="120" height="60" as="geometry"/>
                </mxCell>
                <mxCell id="qtmVg_TJgR1GC3pNEV_o-46" value="Domain 層" style="swimlane;fillColor=none;startSize=23;" parent="qtmVg_TJgR1GC3pNEV_o-1" vertex="1">
                    <mxGeometry x="335" y="620" width="395" height="210" as="geometry">
                        <mxRectangle x="611" y="280" width="70" height="23" as="alternateBounds"/>
                    </mxGeometry>
                </mxCell>
                <mxCell id="qtmVg_TJgR1GC3pNEV_o-47" style="edgeStyle=none;html=1;exitX=0.5;exitY=1;exitDx=0;exitDy=0;entryX=0.5;entryY=0;entryDx=0;entryDy=0;dashed=1;" parent="qtmVg_TJgR1GC3pNEV_o-46" edge="1">
                    <mxGeometry relative="1" as="geometry">
                        <mxPoint x="63.5" y="79" as="sourcePoint"/>
                    </mxGeometry>
                </mxCell>
                <mxCell id="qtmVg_TJgR1GC3pNEV_o-48" style="edgeStyle=none;html=1;exitX=0.5;exitY=0;exitDx=0;exitDy=0;dashed=1;entryX=0.5;entryY=1;entryDx=0;entryDy=0;" parent="qtmVg_TJgR1GC3pNEV_o-46" edge="1">
                    <mxGeometry relative="1" as="geometry">
                        <mxPoint x="63.5" y="157.5" as="targetPoint"/>
                    </mxGeometry>
                </mxCell>
                <mxCell id="qtmVg_TJgR1GC3pNEV_o-49" value="PRP&lt;br&gt;権限マッピングデータを取得" style="rounded=1;whiteSpace=wrap;html=1;fillColor=none;" parent="qtmVg_TJgR1GC3pNEV_o-46" vertex="1">
                    <mxGeometry x="245" y="50" width="120" height="60" as="geometry"/>
                </mxCell>
            </root>
        </mxGraphModel>
    </diagram>
    <diagram id="ZdhLeyqGz_Wx9HRLfnm7" name="ページ2">
        <mxGraphModel dx="977" dy="1294" grid="1" gridSize="10" guides="1" tooltips="1" connect="1" arrows="1" fold="1" page="1" pageScale="1" pageWidth="827" pageHeight="1169" math="0" shadow="0">
            <root>
                <mxCell id="SIdBSfJoWr1x3UVd4wp3-0"/>
                <mxCell id="SIdBSfJoWr1x3UVd4wp3-1" parent="SIdBSfJoWr1x3UVd4wp3-0"/>
                <mxCell id="um6ceaH83gxlKoEVquSb-0" value="Service :&lt;br&gt;&amp;nbsp; info&lt;br&gt;Context :&lt;br&gt;&amp;nbsp; authControl" style="shape=note;whiteSpace=wrap;html=1;backgroundOutline=1;darkOpacity=0.05;fillColor=none;align=left;" parent="SIdBSfJoWr1x3UVd4wp3-1" vertex="1">
                    <mxGeometry width="92" height="100" as="geometry"/>
                </mxCell>
                <mxCell id="ys_T8GU-pnRQBrMtciTV-80" style="edgeStyle=none;html=1;exitX=0.5;exitY=1;exitDx=0;exitDy=0;entryX=0.5;entryY=0;entryDx=0;entryDy=0;endArrow=none;endFill=0;" parent="SIdBSfJoWr1x3UVd4wp3-1" source="ys_T8GU-pnRQBrMtciTV-70" target="ys_T8GU-pnRQBrMtciTV-75" edge="1">
                    <mxGeometry relative="1" as="geometry"/>
                </mxCell>
                <mxCell id="ys_T8GU-pnRQBrMtciTV-95" value="1" style="edgeLabel;html=1;align=center;verticalAlign=middle;resizable=0;points=[];" parent="ys_T8GU-pnRQBrMtciTV-80" vertex="1" connectable="0">
                    <mxGeometry x="-0.5586" y="1" relative="1" as="geometry">
                        <mxPoint x="8" as="offset"/>
                    </mxGeometry>
                </mxCell>
                <mxCell id="ys_T8GU-pnRQBrMtciTV-96" value="n" style="edgeLabel;html=1;align=center;verticalAlign=middle;resizable=0;points=[];" parent="ys_T8GU-pnRQBrMtciTV-80" vertex="1" connectable="0">
                    <mxGeometry x="0.5103" y="-1" relative="1" as="geometry">
                        <mxPoint x="10" as="offset"/>
                    </mxGeometry>
                </mxCell>
                <mxCell id="ys_T8GU-pnRQBrMtciTV-70" value="対象(context)" style="swimlane;fillColor=none;startSize=23;flipH=1;" parent="SIdBSfJoWr1x3UVd4wp3-1" vertex="1">
                    <mxGeometry x="76.25" y="160" width="110" height="90" as="geometry">
                        <mxRectangle x="611" y="280" width="70" height="23" as="alternateBounds"/>
                    </mxGeometry>
                </mxCell>
                <mxCell id="ys_T8GU-pnRQBrMtciTV-71" style="edgeStyle=none;html=1;exitX=0.5;exitY=1;exitDx=0;exitDy=0;entryX=0.5;entryY=0;entryDx=0;entryDy=0;dashed=1;" parent="ys_T8GU-pnRQBrMtciTV-70" edge="1">
                    <mxGeometry relative="1" as="geometry">
                        <mxPoint x="63.5" y="79" as="sourcePoint"/>
                    </mxGeometry>
                </mxCell>
                <mxCell id="ys_T8GU-pnRQBrMtciTV-72" style="edgeStyle=none;html=1;exitX=0.5;exitY=0;exitDx=0;exitDy=0;dashed=1;entryX=0.5;entryY=1;entryDx=0;entryDy=0;" parent="ys_T8GU-pnRQBrMtciTV-70" edge="1">
                    <mxGeometry relative="1" as="geometry">
                        <mxPoint x="63.5" y="157.5" as="targetPoint"/>
                    </mxGeometry>
                </mxCell>
                <mxCell id="ys_T8GU-pnRQBrMtciTV-73" value="対象名: name" style="text;html=1;align=center;verticalAlign=middle;resizable=0;points=[];autosize=1;strokeColor=none;fillColor=none;flipH=1;" parent="ys_T8GU-pnRQBrMtciTV-70" vertex="1">
                    <mxGeometry x="10" y="50" width="90" height="20" as="geometry"/>
                </mxCell>
                <mxCell id="ys_T8GU-pnRQBrMtciTV-74" value="対象ID: id" style="text;html=1;align=center;verticalAlign=middle;resizable=0;points=[];autosize=1;strokeColor=none;fillColor=none;flipH=1;" parent="ys_T8GU-pnRQBrMtciTV-70" vertex="1">
                    <mxGeometry x="20" y="30" width="70" height="20" as="geometry"/>
                </mxCell>
                <mxCell id="ys_T8GU-pnRQBrMtciTV-175" style="edgeStyle=none;html=1;exitX=1;exitY=0.5;exitDx=0;exitDy=0;entryX=0;entryY=0.5;entryDx=0;entryDy=0;endArrow=none;endFill=0;" parent="SIdBSfJoWr1x3UVd4wp3-1" source="ys_T8GU-pnRQBrMtciTV-75" target="ys_T8GU-pnRQBrMtciTV-99" edge="1">
                    <mxGeometry relative="1" as="geometry"/>
                </mxCell>
                <mxCell id="ys_T8GU-pnRQBrMtciTV-178" value="1" style="edgeLabel;html=1;align=center;verticalAlign=middle;resizable=0;points=[];" parent="ys_T8GU-pnRQBrMtciTV-175" vertex="1" connectable="0">
                    <mxGeometry x="-0.7962" y="1" relative="1" as="geometry">
                        <mxPoint y="-9" as="offset"/>
                    </mxGeometry>
                </mxCell>
                <mxCell id="ys_T8GU-pnRQBrMtciTV-179" value="n" style="edgeLabel;html=1;align=center;verticalAlign=middle;resizable=0;points=[];" parent="ys_T8GU-pnRQBrMtciTV-175" vertex="1" connectable="0">
                    <mxGeometry x="0.7847" y="1" relative="1" as="geometry">
                        <mxPoint y="-9" as="offset"/>
                    </mxGeometry>
                </mxCell>
                <mxCell id="ys_T8GU-pnRQBrMtciTV-75" value="操作(operation)" style="swimlane;fillColor=none;startSize=23;flipH=1;" parent="SIdBSfJoWr1x3UVd4wp3-1" vertex="1">
                    <mxGeometry x="62.5" y="330" width="137.5" height="100" as="geometry">
                        <mxRectangle x="611" y="280" width="70" height="23" as="alternateBounds"/>
                    </mxGeometry>
                </mxCell>
                <mxCell id="ys_T8GU-pnRQBrMtciTV-76" style="edgeStyle=none;html=1;exitX=0.5;exitY=1;exitDx=0;exitDy=0;entryX=0.5;entryY=0;entryDx=0;entryDy=0;dashed=1;" parent="ys_T8GU-pnRQBrMtciTV-75" edge="1">
                    <mxGeometry relative="1" as="geometry">
                        <mxPoint x="63.5" y="79" as="sourcePoint"/>
                    </mxGeometry>
                </mxCell>
                <mxCell id="ys_T8GU-pnRQBrMtciTV-77" style="edgeStyle=none;html=1;exitX=0.5;exitY=0;exitDx=0;exitDy=0;dashed=1;entryX=0.5;entryY=1;entryDx=0;entryDy=0;" parent="ys_T8GU-pnRQBrMtciTV-75" edge="1">
                    <mxGeometry relative="1" as="geometry">
                        <mxPoint x="63.5" y="157.5" as="targetPoint"/>
                    </mxGeometry>
                </mxCell>
                <mxCell id="ys_T8GU-pnRQBrMtciTV-78" value="操作ID: id" style="text;html=1;align=center;verticalAlign=middle;resizable=0;points=[];autosize=1;strokeColor=none;fillColor=none;flipH=1;" parent="ys_T8GU-pnRQBrMtciTV-75" vertex="1">
                    <mxGeometry x="32.5" y="30" width="70" height="20" as="geometry"/>
                </mxCell>
                <mxCell id="ys_T8GU-pnRQBrMtciTV-79" value="操作名: name" style="text;html=1;align=center;verticalAlign=middle;resizable=0;points=[];autosize=1;strokeColor=none;fillColor=none;flipH=1;" parent="ys_T8GU-pnRQBrMtciTV-75" vertex="1">
                    <mxGeometry x="22.5" y="70" width="90" height="20" as="geometry"/>
                </mxCell>
                <mxCell id="ys_T8GU-pnRQBrMtciTV-81" style="edgeStyle=none;html=1;exitX=0.5;exitY=0;exitDx=0;exitDy=0;endArrow=none;endFill=0;entryX=0.5;entryY=1;entryDx=0;entryDy=0;" parent="SIdBSfJoWr1x3UVd4wp3-1" source="ys_T8GU-pnRQBrMtciTV-82" target="ys_T8GU-pnRQBrMtciTV-88" edge="1">
                    <mxGeometry relative="1" as="geometry">
                        <mxPoint x="700" y="455" as="targetPoint"/>
                    </mxGeometry>
                </mxCell>
                <mxCell id="ys_T8GU-pnRQBrMtciTV-97" value="1" style="edgeLabel;html=1;align=center;verticalAlign=middle;resizable=0;points=[];" parent="ys_T8GU-pnRQBrMtciTV-81" vertex="1" connectable="0">
                    <mxGeometry x="0.7729" y="-1" relative="1" as="geometry">
                        <mxPoint x="14" as="offset"/>
                    </mxGeometry>
                </mxCell>
                <mxCell id="ys_T8GU-pnRQBrMtciTV-98" value="1" style="edgeLabel;html=1;align=center;verticalAlign=middle;resizable=0;points=[];" parent="ys_T8GU-pnRQBrMtciTV-81" vertex="1" connectable="0">
                    <mxGeometry x="-0.7293" y="-2" relative="1" as="geometry">
                        <mxPoint x="12" as="offset"/>
                    </mxGeometry>
                </mxCell>
                <mxCell id="ys_T8GU-pnRQBrMtciTV-82" value="トークン(token)" style="swimlane;fillColor=none;startSize=23;" parent="SIdBSfJoWr1x3UVd4wp3-1" vertex="1">
                    <mxGeometry x="575.63" y="535" width="198.75" height="110" as="geometry">
                        <mxRectangle x="611" y="280" width="70" height="23" as="alternateBounds"/>
                    </mxGeometry>
                </mxCell>
                <mxCell id="ys_T8GU-pnRQBrMtciTV-83" style="edgeStyle=none;html=1;exitX=0.5;exitY=1;exitDx=0;exitDy=0;entryX=0.5;entryY=0;entryDx=0;entryDy=0;dashed=1;" parent="ys_T8GU-pnRQBrMtciTV-82" edge="1">
                    <mxGeometry relative="1" as="geometry">
                        <mxPoint x="63.5" y="79" as="sourcePoint"/>
                    </mxGeometry>
                </mxCell>
                <mxCell id="ys_T8GU-pnRQBrMtciTV-84" style="edgeStyle=none;html=1;exitX=0.5;exitY=0;exitDx=0;exitDy=0;dashed=1;entryX=0.5;entryY=1;entryDx=0;entryDy=0;" parent="ys_T8GU-pnRQBrMtciTV-82" edge="1">
                    <mxGeometry relative="1" as="geometry">
                        <mxPoint x="63.5" y="157.5" as="targetPoint"/>
                    </mxGeometry>
                </mxCell>
                <mxCell id="ys_T8GU-pnRQBrMtciTV-85" value="IDトークン: IDToken" style="text;html=1;align=center;verticalAlign=middle;resizable=0;points=[];autosize=1;strokeColor=none;fillColor=none;" parent="ys_T8GU-pnRQBrMtciTV-82" vertex="1">
                    <mxGeometry x="34.375" y="54" width="130" height="20" as="geometry"/>
                </mxCell>
                <mxCell id="ys_T8GU-pnRQBrMtciTV-86" value="アクセストークン：accessToken" style="text;html=1;align=center;verticalAlign=middle;resizable=0;points=[];autosize=1;strokeColor=none;fillColor=none;" parent="ys_T8GU-pnRQBrMtciTV-82" vertex="1">
                    <mxGeometry x="4.375" y="80" width="190" height="20" as="geometry"/>
                </mxCell>
                <mxCell id="ys_T8GU-pnRQBrMtciTV-87" value="トークンID: id" style="text;html=1;align=center;verticalAlign=middle;resizable=0;points=[];autosize=1;strokeColor=none;fillColor=none;" parent="ys_T8GU-pnRQBrMtciTV-82" vertex="1">
                    <mxGeometry x="54.375" y="34" width="90" height="20" as="geometry"/>
                </mxCell>
                <mxCell id="ys_T8GU-pnRQBrMtciTV-176" style="edgeStyle=none;html=1;exitX=0;exitY=0.5;exitDx=0;exitDy=0;entryX=1;entryY=0.5;entryDx=0;entryDy=0;endArrow=none;endFill=0;" parent="SIdBSfJoWr1x3UVd4wp3-1" source="ys_T8GU-pnRQBrMtciTV-88" target="ys_T8GU-pnRQBrMtciTV-99" edge="1">
                    <mxGeometry relative="1" as="geometry"/>
                </mxCell>
                <mxCell id="ys_T8GU-pnRQBrMtciTV-180" value="1" style="edgeLabel;html=1;align=center;verticalAlign=middle;resizable=0;points=[];" parent="ys_T8GU-pnRQBrMtciTV-176" vertex="1" connectable="0">
                    <mxGeometry x="0.812" y="1" relative="1" as="geometry">
                        <mxPoint y="-12" as="offset"/>
                    </mxGeometry>
                </mxCell>
                <mxCell id="ys_T8GU-pnRQBrMtciTV-181" value="n" style="edgeLabel;html=1;align=center;verticalAlign=middle;resizable=0;points=[];" parent="ys_T8GU-pnRQBrMtciTV-176" vertex="1" connectable="0">
                    <mxGeometry x="-0.8432" y="-3" relative="1" as="geometry">
                        <mxPoint y="-7" as="offset"/>
                    </mxGeometry>
                </mxCell>
                <mxCell id="ys_T8GU-pnRQBrMtciTV-88" value="ユーザー(user)" style="swimlane;fillColor=none;startSize=23;" parent="SIdBSfJoWr1x3UVd4wp3-1" vertex="1">
                    <mxGeometry x="580" y="315" width="190" height="130" as="geometry">
                        <mxRectangle x="611" y="280" width="70" height="23" as="alternateBounds"/>
                    </mxGeometry>
                </mxCell>
                <mxCell id="ys_T8GU-pnRQBrMtciTV-89" style="edgeStyle=none;html=1;exitX=0.5;exitY=1;exitDx=0;exitDy=0;entryX=0.5;entryY=0;entryDx=0;entryDy=0;dashed=1;" parent="ys_T8GU-pnRQBrMtciTV-88" edge="1">
                    <mxGeometry relative="1" as="geometry">
                        <mxPoint x="63.5" y="79" as="sourcePoint"/>
                    </mxGeometry>
                </mxCell>
                <mxCell id="ys_T8GU-pnRQBrMtciTV-90" style="edgeStyle=none;html=1;exitX=0.5;exitY=0;exitDx=0;exitDy=0;dashed=1;entryX=0.5;entryY=1;entryDx=0;entryDy=0;" parent="ys_T8GU-pnRQBrMtciTV-88" edge="1">
                    <mxGeometry relative="1" as="geometry">
                        <mxPoint x="63.5" y="157.5" as="targetPoint"/>
                    </mxGeometry>
                </mxCell>
                <mxCell id="ys_T8GU-pnRQBrMtciTV-91" value="ユーザーID: userID" style="text;html=1;align=center;verticalAlign=middle;resizable=0;points=[];autosize=1;strokeColor=none;fillColor=none;" parent="ys_T8GU-pnRQBrMtciTV-88" vertex="1">
                    <mxGeometry x="35" y="50" width="120" height="20" as="geometry"/>
                </mxCell>
                <mxCell id="ys_T8GU-pnRQBrMtciTV-92" value="ユーザー名: name" style="text;html=1;align=center;verticalAlign=middle;resizable=0;points=[];autosize=1;strokeColor=none;fillColor=none;" parent="ys_T8GU-pnRQBrMtciTV-88" vertex="1">
                    <mxGeometry x="25" y="80" width="110" height="20" as="geometry"/>
                </mxCell>
                <mxCell id="ys_T8GU-pnRQBrMtciTV-93" value="パスワード: password" style="text;html=1;align=center;verticalAlign=middle;resizable=0;points=[];autosize=1;strokeColor=none;fillColor=none;" parent="ys_T8GU-pnRQBrMtciTV-88" vertex="1">
                    <mxGeometry x="15" y="100" width="130" height="20" as="geometry"/>
                </mxCell>
                <mxCell id="ys_T8GU-pnRQBrMtciTV-94" value="アカウントID: id" style="text;html=1;align=center;verticalAlign=middle;resizable=0;points=[];autosize=1;strokeColor=none;fillColor=none;" parent="ys_T8GU-pnRQBrMtciTV-88" vertex="1">
                    <mxGeometry x="45" y="30" width="100" height="20" as="geometry"/>
                </mxCell>
                <mxCell id="ys_T8GU-pnRQBrMtciTV-99" value="権限(authorization)" style="swimlane;fillColor=none;startSize=23;" parent="SIdBSfJoWr1x3UVd4wp3-1" vertex="1">
                    <mxGeometry x="330" y="325" width="137.5" height="110" as="geometry">
                        <mxRectangle x="611" y="280" width="70" height="23" as="alternateBounds"/>
                    </mxGeometry>
                </mxCell>
                <mxCell id="ys_T8GU-pnRQBrMtciTV-100" style="edgeStyle=none;html=1;exitX=0.5;exitY=1;exitDx=0;exitDy=0;entryX=0.5;entryY=0;entryDx=0;entryDy=0;dashed=1;" parent="ys_T8GU-pnRQBrMtciTV-99" edge="1">
                    <mxGeometry relative="1" as="geometry">
                        <mxPoint x="63.5" y="79" as="sourcePoint"/>
                    </mxGeometry>
                </mxCell>
                <mxCell id="ys_T8GU-pnRQBrMtciTV-101" style="edgeStyle=none;html=1;exitX=0.5;exitY=0;exitDx=0;exitDy=0;dashed=1;entryX=0.5;entryY=1;entryDx=0;entryDy=0;" parent="ys_T8GU-pnRQBrMtciTV-99" edge="1">
                    <mxGeometry relative="1" as="geometry">
                        <mxPoint x="63.5" y="157.5" as="targetPoint"/>
                    </mxGeometry>
                </mxCell>
                <mxCell id="ys_T8GU-pnRQBrMtciTV-102" value="操作ID: operationID" style="text;html=1;align=center;verticalAlign=middle;resizable=0;points=[];autosize=1;strokeColor=none;fillColor=none;" parent="ys_T8GU-pnRQBrMtciTV-99" vertex="1">
                    <mxGeometry x="7.5" y="54" width="120" height="20" as="geometry"/>
                </mxCell>
                <mxCell id="ys_T8GU-pnRQBrMtciTV-103" value="所有者ID: accountID" style="text;html=1;align=center;verticalAlign=middle;resizable=0;points=[];autosize=1;strokeColor=none;fillColor=none;" parent="ys_T8GU-pnRQBrMtciTV-99" vertex="1">
                    <mxGeometry x="2.5" y="74" width="120" height="20" as="geometry"/>
                </mxCell>
                <mxCell id="ys_T8GU-pnRQBrMtciTV-104" value="権限ID: id" style="text;html=1;align=center;verticalAlign=middle;resizable=0;points=[];autosize=1;strokeColor=none;fillColor=none;" parent="ys_T8GU-pnRQBrMtciTV-99" vertex="1">
                    <mxGeometry x="32.5" y="34" width="70" height="20" as="geometry"/>
                </mxCell>
            </root>
        </mxGraphModel>
    </diagram>
    <diagram id="UHjgcTodRr3KEOWbyx-2" name="ページ3">
        <mxGraphModel dx="150" dy="1294" grid="1" gridSize="10" guides="1" tooltips="1" connect="1" arrows="1" fold="1" page="1" pageScale="1" pageWidth="827" pageHeight="1169" math="0" shadow="0">
            <root>
                <mxCell id="z7SESXfrJ4md7pIn7zyP-0"/>
                <mxCell id="z7SESXfrJ4md7pIn7zyP-1" parent="z7SESXfrJ4md7pIn7zyP-0"/>
                <mxCell id="ppBGHj8pFHioXiUgfglE-0" style="edgeStyle=none;html=1;exitX=0.5;exitY=0;exitDx=0;exitDy=0;endArrow=none;endFill=0;entryX=0.5;entryY=1;entryDx=0;entryDy=0;" parent="z7SESXfrJ4md7pIn7zyP-1" source="ppBGHj8pFHioXiUgfglE-1" target="ppBGHj8pFHioXiUgfglE-13" edge="1">
                    <mxGeometry relative="1" as="geometry">
                        <mxPoint x="967" y="680" as="targetPoint"/>
                    </mxGeometry>
                </mxCell>
                <mxCell id="ppBGHj8pFHioXiUgfglE-1" value="トークン" style="swimlane;fillColor=none;startSize=23;" parent="z7SESXfrJ4md7pIn7zyP-1" vertex="1">
                    <mxGeometry x="860.25" y="720" width="137.5" height="110" as="geometry">
                        <mxRectangle x="611" y="280" width="70" height="23" as="alternateBounds"/>
                    </mxGeometry>
                </mxCell>
                <mxCell id="ppBGHj8pFHioXiUgfglE-2" style="edgeStyle=none;html=1;exitX=0.5;exitY=1;exitDx=0;exitDy=0;entryX=0.5;entryY=0;entryDx=0;entryDy=0;dashed=1;" parent="ppBGHj8pFHioXiUgfglE-1" edge="1">
                    <mxGeometry relative="1" as="geometry">
                        <mxPoint x="63.5" y="79" as="sourcePoint"/>
                    </mxGeometry>
                </mxCell>
                <mxCell id="ppBGHj8pFHioXiUgfglE-3" style="edgeStyle=none;html=1;exitX=0.5;exitY=0;exitDx=0;exitDy=0;dashed=1;entryX=0.5;entryY=1;entryDx=0;entryDy=0;" parent="ppBGHj8pFHioXiUgfglE-1" edge="1">
                    <mxGeometry relative="1" as="geometry">
                        <mxPoint x="63.5" y="157.5" as="targetPoint"/>
                    </mxGeometry>
                </mxCell>
                <mxCell id="ppBGHj8pFHioXiUgfglE-4" value="IDトークン: xxx" style="text;html=1;align=center;verticalAlign=middle;resizable=0;points=[];autosize=1;strokeColor=none;fillColor=none;" parent="ppBGHj8pFHioXiUgfglE-1" vertex="1">
                    <mxGeometry x="17.5" y="54" width="100" height="20" as="geometry"/>
                </mxCell>
                <mxCell id="ppBGHj8pFHioXiUgfglE-5" value="アクセストークン：yyy" style="text;html=1;align=center;verticalAlign=middle;resizable=0;points=[];autosize=1;strokeColor=none;fillColor=none;" parent="ppBGHj8pFHioXiUgfglE-1" vertex="1">
                    <mxGeometry x="-2.5" y="80" width="140" height="20" as="geometry"/>
                </mxCell>
                <mxCell id="ppBGHj8pFHioXiUgfglE-6" value="トークンID: 01" style="text;html=1;align=center;verticalAlign=middle;resizable=0;points=[];autosize=1;strokeColor=none;fillColor=none;" parent="ppBGHj8pFHioXiUgfglE-1" vertex="1">
                    <mxGeometry x="17.5" y="34" width="100" height="20" as="geometry"/>
                </mxCell>
                <mxCell id="ppBGHj8pFHioXiUgfglE-7" style="edgeStyle=orthogonalEdgeStyle;html=1;exitX=1;exitY=0.5;exitDx=0;exitDy=0;entryX=0;entryY=0.5;entryDx=0;entryDy=0;endArrow=none;endFill=0;" parent="z7SESXfrJ4md7pIn7zyP-1" source="ppBGHj8pFHioXiUgfglE-13" target="ppBGHj8pFHioXiUgfglE-92" edge="1">
                    <mxGeometry relative="1" as="geometry"/>
                </mxCell>
                <mxCell id="ppBGHj8pFHioXiUgfglE-8" style="edgeStyle=orthogonalEdgeStyle;html=1;exitX=1;exitY=0.5;exitDx=0;exitDy=0;entryX=0;entryY=0.5;entryDx=0;entryDy=0;endArrow=none;endFill=0;" parent="z7SESXfrJ4md7pIn7zyP-1" source="ppBGHj8pFHioXiUgfglE-13" target="ppBGHj8pFHioXiUgfglE-110" edge="1">
                    <mxGeometry relative="1" as="geometry">
                        <mxPoint x="1024" y="690" as="sourcePoint"/>
                    </mxGeometry>
                </mxCell>
                <mxCell id="ppBGHj8pFHioXiUgfglE-9" style="edgeStyle=orthogonalEdgeStyle;html=1;exitX=1;exitY=0.5;exitDx=0;exitDy=0;entryX=0;entryY=0.5;entryDx=0;entryDy=0;endArrow=none;endFill=0;" parent="z7SESXfrJ4md7pIn7zyP-1" source="ppBGHj8pFHioXiUgfglE-13" target="ppBGHj8pFHioXiUgfglE-98" edge="1">
                    <mxGeometry relative="1" as="geometry"/>
                </mxCell>
                <mxCell id="ppBGHj8pFHioXiUgfglE-10" style="edgeStyle=orthogonalEdgeStyle;html=1;exitX=1;exitY=0.5;exitDx=0;exitDy=0;entryX=0;entryY=0.5;entryDx=0;entryDy=0;endArrow=none;endFill=0;" parent="z7SESXfrJ4md7pIn7zyP-1" source="ppBGHj8pFHioXiUgfglE-13" target="ppBGHj8pFHioXiUgfglE-104" edge="1">
                    <mxGeometry relative="1" as="geometry">
                        <mxPoint x="1024" y="690" as="sourcePoint"/>
                    </mxGeometry>
                </mxCell>
                <mxCell id="ppBGHj8pFHioXiUgfglE-11" style="edgeStyle=orthogonalEdgeStyle;html=1;exitX=1;exitY=0.75;exitDx=0;exitDy=0;entryX=0;entryY=0.75;entryDx=0;entryDy=0;endArrow=none;endFill=0;" parent="z7SESXfrJ4md7pIn7zyP-1" source="ppBGHj8pFHioXiUgfglE-13" target="ppBGHj8pFHioXiUgfglE-122" edge="1">
                    <mxGeometry relative="1" as="geometry">
                        <Array as="points">
                            <mxPoint x="1277" y="638"/>
                            <mxPoint x="1277" y="595"/>
                        </Array>
                    </mxGeometry>
                </mxCell>
                <mxCell id="ppBGHj8pFHioXiUgfglE-12" style="edgeStyle=orthogonalEdgeStyle;html=1;exitX=1;exitY=0.75;exitDx=0;exitDy=0;entryX=0;entryY=0.75;entryDx=0;entryDy=0;endArrow=none;endFill=0;" parent="z7SESXfrJ4md7pIn7zyP-1" source="ppBGHj8pFHioXiUgfglE-13" target="ppBGHj8pFHioXiUgfglE-134" edge="1">
                    <mxGeometry relative="1" as="geometry">
                        <Array as="points">
                            <mxPoint x="1277" y="638"/>
                            <mxPoint x="1277" y="915"/>
                        </Array>
                    </mxGeometry>
                </mxCell>
                <mxCell id="ppBGHj8pFHioXiUgfglE-13" value="ユーザー" style="swimlane;fillColor=none;startSize=23;" parent="z7SESXfrJ4md7pIn7zyP-1" vertex="1">
                    <mxGeometry x="834" y="540" width="190" height="130" as="geometry">
                        <mxRectangle x="611" y="280" width="70" height="23" as="alternateBounds"/>
                    </mxGeometry>
                </mxCell>
                <mxCell id="ppBGHj8pFHioXiUgfglE-14" style="edgeStyle=none;html=1;exitX=0.5;exitY=1;exitDx=0;exitDy=0;entryX=0.5;entryY=0;entryDx=0;entryDy=0;dashed=1;" parent="ppBGHj8pFHioXiUgfglE-13" edge="1">
                    <mxGeometry relative="1" as="geometry">
                        <mxPoint x="63.5" y="79" as="sourcePoint"/>
                    </mxGeometry>
                </mxCell>
                <mxCell id="ppBGHj8pFHioXiUgfglE-15" style="edgeStyle=none;html=1;exitX=0.5;exitY=0;exitDx=0;exitDy=0;dashed=1;entryX=0.5;entryY=1;entryDx=0;entryDy=0;" parent="ppBGHj8pFHioXiUgfglE-13" edge="1">
                    <mxGeometry relative="1" as="geometry">
                        <mxPoint x="63.5" y="157.5" as="targetPoint"/>
                    </mxGeometry>
                </mxCell>
                <mxCell id="ppBGHj8pFHioXiUgfglE-16" value="ユーザーID: sena" style="text;html=1;align=center;verticalAlign=middle;resizable=0;points=[];autosize=1;strokeColor=none;fillColor=none;" parent="ppBGHj8pFHioXiUgfglE-13" vertex="1">
                    <mxGeometry x="40" y="50" width="110" height="20" as="geometry"/>
                </mxCell>
                <mxCell id="ppBGHj8pFHioXiUgfglE-17" value="ユーザー名: セナ" style="text;html=1;align=center;verticalAlign=middle;resizable=0;points=[];autosize=1;strokeColor=none;fillColor=none;" parent="ppBGHj8pFHioXiUgfglE-13" vertex="1">
                    <mxGeometry x="25" y="80" width="110" height="20" as="geometry"/>
                </mxCell>
                <mxCell id="ppBGHj8pFHioXiUgfglE-18" value="パスワード: password" style="text;html=1;align=center;verticalAlign=middle;resizable=0;points=[];autosize=1;strokeColor=none;fillColor=none;" parent="ppBGHj8pFHioXiUgfglE-13" vertex="1">
                    <mxGeometry x="15" y="100" width="130" height="20" as="geometry"/>
                </mxCell>
                <mxCell id="ppBGHj8pFHioXiUgfglE-19" value="アカウントID: 01" style="text;html=1;align=center;verticalAlign=middle;resizable=0;points=[];autosize=1;strokeColor=none;fillColor=none;" parent="ppBGHj8pFHioXiUgfglE-13" vertex="1">
                    <mxGeometry x="40" y="30" width="110" height="20" as="geometry"/>
                </mxCell>
                <mxCell id="ppBGHj8pFHioXiUgfglE-20" style="edgeStyle=orthogonalEdgeStyle;html=1;exitX=0.5;exitY=1;exitDx=0;exitDy=0;entryX=1;entryY=0.25;entryDx=0;entryDy=0;endArrow=none;endFill=0;" parent="z7SESXfrJ4md7pIn7zyP-1" source="ppBGHj8pFHioXiUgfglE-22" target="ppBGHj8pFHioXiUgfglE-92" edge="1">
                    <mxGeometry relative="1" as="geometry"/>
                </mxCell>
                <mxCell id="ppBGHj8pFHioXiUgfglE-21" style="edgeStyle=orthogonalEdgeStyle;html=1;exitX=0.5;exitY=1;exitDx=0;exitDy=0;entryX=0;entryY=0.25;entryDx=0;entryDy=0;endArrow=none;endFill=0;" parent="z7SESXfrJ4md7pIn7zyP-1" source="ppBGHj8pFHioXiUgfglE-22" target="ppBGHj8pFHioXiUgfglE-116" edge="1">
                    <mxGeometry relative="1" as="geometry">
                        <Array as="points">
                            <mxPoint x="1080" y="330"/>
                            <mxPoint x="1197" y="330"/>
                            <mxPoint x="1197" y="430"/>
                        </Array>
                    </mxGeometry>
                </mxCell>
                <mxCell id="ppBGHj8pFHioXiUgfglE-22" value="ユーザーロール" style="swimlane;fillColor=none;startSize=23;flipH=1;" parent="z7SESXfrJ4md7pIn7zyP-1" vertex="1">
                    <mxGeometry x="1010.75" y="170" width="137.5" height="100" as="geometry">
                        <mxRectangle x="611" y="280" width="70" height="23" as="alternateBounds"/>
                    </mxGeometry>
                </mxCell>
                <mxCell id="ppBGHj8pFHioXiUgfglE-23" style="edgeStyle=none;html=1;exitX=0.5;exitY=1;exitDx=0;exitDy=0;entryX=0.5;entryY=0;entryDx=0;entryDy=0;dashed=1;" parent="ppBGHj8pFHioXiUgfglE-22" edge="1">
                    <mxGeometry relative="1" as="geometry">
                        <mxPoint x="63.5" y="79" as="sourcePoint"/>
                    </mxGeometry>
                </mxCell>
                <mxCell id="ppBGHj8pFHioXiUgfglE-24" style="edgeStyle=none;html=1;exitX=0.5;exitY=0;exitDx=0;exitDy=0;dashed=1;entryX=0.5;entryY=1;entryDx=0;entryDy=0;" parent="ppBGHj8pFHioXiUgfglE-22" edge="1">
                    <mxGeometry relative="1" as="geometry">
                        <mxPoint x="63.5" y="157.5" as="targetPoint"/>
                    </mxGeometry>
                </mxCell>
                <mxCell id="ppBGHj8pFHioXiUgfglE-25" value="ユーザーロールID: 0101" style="text;html=1;align=center;verticalAlign=middle;resizable=0;points=[];autosize=1;strokeColor=none;fillColor=none;flipH=1;" parent="ppBGHj8pFHioXiUgfglE-22" vertex="1">
                    <mxGeometry x="-2.5" y="30" width="140" height="20" as="geometry"/>
                </mxCell>
                <mxCell id="ppBGHj8pFHioXiUgfglE-26" value="操作: yyy" style="text;html=1;align=center;verticalAlign=middle;resizable=0;points=[];autosize=1;strokeColor=none;fillColor=none;flipH=1;" parent="ppBGHj8pFHioXiUgfglE-22" vertex="1">
                    <mxGeometry x="37.5" y="70" width="60" height="20" as="geometry"/>
                </mxCell>
                <mxCell id="ppBGHj8pFHioXiUgfglE-27" style="edgeStyle=orthogonalEdgeStyle;html=1;exitX=0;exitY=0.5;exitDx=0;exitDy=0;entryX=1;entryY=0.5;entryDx=0;entryDy=0;endArrow=none;endFill=0;" parent="z7SESXfrJ4md7pIn7zyP-1" source="ppBGHj8pFHioXiUgfglE-33" target="ppBGHj8pFHioXiUgfglE-122" edge="1">
                    <mxGeometry relative="1" as="geometry"/>
                </mxCell>
                <mxCell id="ppBGHj8pFHioXiUgfglE-28" style="edgeStyle=orthogonalEdgeStyle;html=1;exitX=0;exitY=0.5;exitDx=0;exitDy=0;entryX=1;entryY=0.5;entryDx=0;entryDy=0;endArrow=none;endFill=0;" parent="z7SESXfrJ4md7pIn7zyP-1" source="ppBGHj8pFHioXiUgfglE-33" target="ppBGHj8pFHioXiUgfglE-116" edge="1">
                    <mxGeometry relative="1" as="geometry"/>
                </mxCell>
                <mxCell id="ppBGHj8pFHioXiUgfglE-29" style="edgeStyle=orthogonalEdgeStyle;html=1;exitX=0;exitY=0.5;exitDx=0;exitDy=0;entryX=1;entryY=0.5;entryDx=0;entryDy=0;endArrow=none;endFill=0;" parent="z7SESXfrJ4md7pIn7zyP-1" source="ppBGHj8pFHioXiUgfglE-33" target="ppBGHj8pFHioXiUgfglE-128" edge="1">
                    <mxGeometry relative="1" as="geometry"/>
                </mxCell>
                <mxCell id="ppBGHj8pFHioXiUgfglE-30" style="edgeStyle=orthogonalEdgeStyle;html=1;exitX=0;exitY=0.5;exitDx=0;exitDy=0;entryX=1;entryY=0.5;entryDx=0;entryDy=0;endArrow=none;endFill=0;" parent="z7SESXfrJ4md7pIn7zyP-1" source="ppBGHj8pFHioXiUgfglE-33" target="ppBGHj8pFHioXiUgfglE-134" edge="1">
                    <mxGeometry relative="1" as="geometry"/>
                </mxCell>
                <mxCell id="ppBGHj8pFHioXiUgfglE-31" style="edgeStyle=orthogonalEdgeStyle;html=1;exitX=0;exitY=0.75;exitDx=0;exitDy=0;entryX=1;entryY=0.75;entryDx=0;entryDy=0;endArrow=none;endFill=0;" parent="z7SESXfrJ4md7pIn7zyP-1" source="ppBGHj8pFHioXiUgfglE-33" target="ppBGHj8pFHioXiUgfglE-92" edge="1">
                    <mxGeometry relative="1" as="geometry">
                        <Array as="points">
                            <mxPoint x="1257" y="678"/>
                            <mxPoint x="1257" y="465"/>
                        </Array>
                    </mxGeometry>
                </mxCell>
                <mxCell id="ppBGHj8pFHioXiUgfglE-32" style="edgeStyle=orthogonalEdgeStyle;html=1;exitX=0;exitY=0.75;exitDx=0;exitDy=0;entryX=1;entryY=0.75;entryDx=0;entryDy=0;endArrow=none;endFill=0;" parent="z7SESXfrJ4md7pIn7zyP-1" source="ppBGHj8pFHioXiUgfglE-33" target="ppBGHj8pFHioXiUgfglE-104" edge="1">
                    <mxGeometry relative="1" as="geometry">
                        <Array as="points">
                            <mxPoint x="1257" y="678"/>
                            <mxPoint x="1257" y="780"/>
                        </Array>
                    </mxGeometry>
                </mxCell>
                <mxCell id="ppBGHj8pFHioXiUgfglE-33" value="ユーザー" style="swimlane;fillColor=none;startSize=23;" parent="z7SESXfrJ4md7pIn7zyP-1" vertex="1">
                    <mxGeometry x="1457" y="580" width="190" height="130" as="geometry">
                        <mxRectangle x="611" y="280" width="70" height="23" as="alternateBounds"/>
                    </mxGeometry>
                </mxCell>
                <mxCell id="ppBGHj8pFHioXiUgfglE-34" style="edgeStyle=none;html=1;exitX=0.5;exitY=1;exitDx=0;exitDy=0;entryX=0.5;entryY=0;entryDx=0;entryDy=0;dashed=1;" parent="ppBGHj8pFHioXiUgfglE-33" edge="1">
                    <mxGeometry relative="1" as="geometry">
                        <mxPoint x="63.5" y="79" as="sourcePoint"/>
                    </mxGeometry>
                </mxCell>
                <mxCell id="ppBGHj8pFHioXiUgfglE-35" style="edgeStyle=none;html=1;exitX=0.5;exitY=0;exitDx=0;exitDy=0;dashed=1;entryX=0.5;entryY=1;entryDx=0;entryDy=0;" parent="ppBGHj8pFHioXiUgfglE-33" edge="1">
                    <mxGeometry relative="1" as="geometry">
                        <mxPoint x="63.5" y="157.5" as="targetPoint"/>
                    </mxGeometry>
                </mxCell>
                <mxCell id="ppBGHj8pFHioXiUgfglE-36" value="ユーザーID: sukoya" style="text;html=1;align=center;verticalAlign=middle;resizable=0;points=[];autosize=1;strokeColor=none;fillColor=none;" parent="ppBGHj8pFHioXiUgfglE-33" vertex="1">
                    <mxGeometry x="35" y="50" width="120" height="20" as="geometry"/>
                </mxCell>
                <mxCell id="ppBGHj8pFHioXiUgfglE-37" value="ユーザー名: 健屋" style="text;html=1;align=center;verticalAlign=middle;resizable=0;points=[];autosize=1;strokeColor=none;fillColor=none;" parent="ppBGHj8pFHioXiUgfglE-33" vertex="1">
                    <mxGeometry x="25" y="80" width="110" height="20" as="geometry"/>
                </mxCell>
                <mxCell id="ppBGHj8pFHioXiUgfglE-38" value="パスワード: password" style="text;html=1;align=center;verticalAlign=middle;resizable=0;points=[];autosize=1;strokeColor=none;fillColor=none;" parent="ppBGHj8pFHioXiUgfglE-33" vertex="1">
                    <mxGeometry x="15" y="100" width="130" height="20" as="geometry"/>
                </mxCell>
                <mxCell id="ppBGHj8pFHioXiUgfglE-39" value="アカウントID: 02" style="text;html=1;align=center;verticalAlign=middle;resizable=0;points=[];autosize=1;strokeColor=none;fillColor=none;" parent="ppBGHj8pFHioXiUgfglE-33" vertex="1">
                    <mxGeometry x="40" y="30" width="110" height="20" as="geometry"/>
                </mxCell>
                <mxCell id="ppBGHj8pFHioXiUgfglE-40" style="edgeStyle=none;html=1;exitX=0.5;exitY=1;exitDx=0;exitDy=0;entryX=0.5;entryY=0;entryDx=0;entryDy=0;endArrow=none;endFill=0;" parent="z7SESXfrJ4md7pIn7zyP-1" source="ppBGHj8pFHioXiUgfglE-42" target="ppBGHj8pFHioXiUgfglE-22" edge="1">
                    <mxGeometry relative="1" as="geometry"/>
                </mxCell>
                <mxCell id="ppBGHj8pFHioXiUgfglE-41" style="edgeStyle=none;html=1;exitX=0.5;exitY=1;exitDx=0;exitDy=0;entryX=0.5;entryY=0;entryDx=0;entryDy=0;endArrow=none;endFill=0;" parent="z7SESXfrJ4md7pIn7zyP-1" source="ppBGHj8pFHioXiUgfglE-42" target="ppBGHj8pFHioXiUgfglE-59" edge="1">
                    <mxGeometry relative="1" as="geometry"/>
                </mxCell>
                <mxCell id="ppBGHj8pFHioXiUgfglE-42" value="対象" style="swimlane;fillColor=none;startSize=23;flipH=1;" parent="z7SESXfrJ4md7pIn7zyP-1" vertex="1">
                    <mxGeometry x="1072" y="30" width="110" height="90" as="geometry">
                        <mxRectangle x="611" y="280" width="70" height="23" as="alternateBounds"/>
                    </mxGeometry>
                </mxCell>
                <mxCell id="ppBGHj8pFHioXiUgfglE-43" style="edgeStyle=none;html=1;exitX=0.5;exitY=1;exitDx=0;exitDy=0;entryX=0.5;entryY=0;entryDx=0;entryDy=0;dashed=1;" parent="ppBGHj8pFHioXiUgfglE-42" edge="1">
                    <mxGeometry relative="1" as="geometry">
                        <mxPoint x="63.5" y="79" as="sourcePoint"/>
                    </mxGeometry>
                </mxCell>
                <mxCell id="ppBGHj8pFHioXiUgfglE-44" style="edgeStyle=none;html=1;exitX=0.5;exitY=0;exitDx=0;exitDy=0;dashed=1;entryX=0.5;entryY=1;entryDx=0;entryDy=0;" parent="ppBGHj8pFHioXiUgfglE-42" edge="1">
                    <mxGeometry relative="1" as="geometry">
                        <mxPoint x="63.5" y="157.5" as="targetPoint"/>
                    </mxGeometry>
                </mxCell>
                <mxCell id="ppBGHj8pFHioXiUgfglE-45" value="対象名: xxx" style="text;html=1;align=center;verticalAlign=middle;resizable=0;points=[];autosize=1;strokeColor=none;fillColor=none;flipH=1;" parent="ppBGHj8pFHioXiUgfglE-42" vertex="1">
                    <mxGeometry x="15" y="50" width="80" height="20" as="geometry"/>
                </mxCell>
                <mxCell id="ppBGHj8pFHioXiUgfglE-46" value="対象ID: 01" style="text;html=1;align=center;verticalAlign=middle;resizable=0;points=[];autosize=1;strokeColor=none;fillColor=none;flipH=1;" parent="ppBGHj8pFHioXiUgfglE-42" vertex="1">
                    <mxGeometry x="20" y="30" width="70" height="20" as="geometry"/>
                </mxCell>
                <mxCell id="ppBGHj8pFHioXiUgfglE-47" value="管理者ロール01" style="swimlane;fillColor=none;startSize=23;flipH=1;" parent="z7SESXfrJ4md7pIn7zyP-1" vertex="1">
                    <mxGeometry x="1060" y="1060" width="110" height="90" as="geometry">
                        <mxRectangle x="611" y="280" width="70" height="23" as="alternateBounds"/>
                    </mxGeometry>
                </mxCell>
                <mxCell id="ppBGHj8pFHioXiUgfglE-48" style="edgeStyle=none;html=1;exitX=0.5;exitY=1;exitDx=0;exitDy=0;entryX=0.5;entryY=0;entryDx=0;entryDy=0;dashed=1;" parent="ppBGHj8pFHioXiUgfglE-47" edge="1">
                    <mxGeometry relative="1" as="geometry">
                        <mxPoint x="63.5" y="79" as="sourcePoint"/>
                    </mxGeometry>
                </mxCell>
                <mxCell id="ppBGHj8pFHioXiUgfglE-49" style="edgeStyle=none;html=1;exitX=0.5;exitY=0;exitDx=0;exitDy=0;dashed=1;entryX=0.5;entryY=1;entryDx=0;entryDy=0;" parent="ppBGHj8pFHioXiUgfglE-47" edge="1">
                    <mxGeometry relative="1" as="geometry">
                        <mxPoint x="63.5" y="157.5" as="targetPoint"/>
                    </mxGeometry>
                </mxCell>
                <mxCell id="ppBGHj8pFHioXiUgfglE-50" value="管理者" style="swimlane;fillColor=none;startSize=23;" parent="z7SESXfrJ4md7pIn7zyP-1" vertex="1">
                    <mxGeometry x="850" y="1030" width="190" height="120" as="geometry">
                        <mxRectangle x="611" y="280" width="70" height="23" as="alternateBounds"/>
                    </mxGeometry>
                </mxCell>
                <mxCell id="ppBGHj8pFHioXiUgfglE-51" style="edgeStyle=none;html=1;exitX=0.5;exitY=1;exitDx=0;exitDy=0;entryX=0.5;entryY=0;entryDx=0;entryDy=0;dashed=1;" parent="ppBGHj8pFHioXiUgfglE-50" edge="1">
                    <mxGeometry relative="1" as="geometry">
                        <mxPoint x="63.5" y="79" as="sourcePoint"/>
                    </mxGeometry>
                </mxCell>
                <mxCell id="ppBGHj8pFHioXiUgfglE-52" style="edgeStyle=none;html=1;exitX=0.5;exitY=0;exitDx=0;exitDy=0;dashed=1;entryX=0.5;entryY=1;entryDx=0;entryDy=0;" parent="ppBGHj8pFHioXiUgfglE-50" edge="1">
                    <mxGeometry relative="1" as="geometry">
                        <mxPoint x="63.5" y="157.5" as="targetPoint"/>
                    </mxGeometry>
                </mxCell>
                <mxCell id="ppBGHj8pFHioXiUgfglE-53" value="管理者ID: sena" style="text;html=1;align=center;verticalAlign=middle;resizable=0;points=[];autosize=1;strokeColor=none;fillColor=none;" parent="ppBGHj8pFHioXiUgfglE-50" vertex="1">
                    <mxGeometry x="45" y="50" width="100" height="20" as="geometry"/>
                </mxCell>
                <mxCell id="ppBGHj8pFHioXiUgfglE-54" value="管理者名: セナ" style="text;html=1;align=center;verticalAlign=middle;resizable=0;points=[];autosize=1;strokeColor=none;fillColor=none;" parent="ppBGHj8pFHioXiUgfglE-50" vertex="1">
                    <mxGeometry x="35" y="80" width="90" height="20" as="geometry"/>
                </mxCell>
                <mxCell id="ppBGHj8pFHioXiUgfglE-55" value="パスワード: password" style="text;html=1;align=center;verticalAlign=middle;resizable=0;points=[];autosize=1;strokeColor=none;fillColor=none;" parent="ppBGHj8pFHioXiUgfglE-50" vertex="1">
                    <mxGeometry x="15" y="100" width="130" height="20" as="geometry"/>
                </mxCell>
                <mxCell id="ppBGHj8pFHioXiUgfglE-56" value="アカウントID: 未定" style="text;html=1;align=center;verticalAlign=middle;resizable=0;points=[];autosize=1;strokeColor=none;fillColor=none;" parent="ppBGHj8pFHioXiUgfglE-50" vertex="1">
                    <mxGeometry x="35" y="30" width="120" height="20" as="geometry"/>
                </mxCell>
                <mxCell id="ppBGHj8pFHioXiUgfglE-57" style="edgeStyle=orthogonalEdgeStyle;html=1;exitX=0.5;exitY=1;exitDx=0;exitDy=0;entryX=1;entryY=0.25;entryDx=0;entryDy=0;endArrow=none;endFill=0;" parent="z7SESXfrJ4md7pIn7zyP-1" source="ppBGHj8pFHioXiUgfglE-59" target="ppBGHj8pFHioXiUgfglE-98" edge="1">
                    <mxGeometry relative="1" as="geometry">
                        <Array as="points">
                            <mxPoint x="1207" y="315"/>
                            <mxPoint x="1207" y="545"/>
                        </Array>
                    </mxGeometry>
                </mxCell>
                <mxCell id="ppBGHj8pFHioXiUgfglE-58" style="edgeStyle=orthogonalEdgeStyle;html=1;exitX=0.5;exitY=1;exitDx=0;exitDy=0;entryX=1.006;entryY=0.184;entryDx=0;entryDy=0;entryPerimeter=0;endArrow=none;endFill=0;" parent="z7SESXfrJ4md7pIn7zyP-1" source="ppBGHj8pFHioXiUgfglE-59" target="ppBGHj8pFHioXiUgfglE-122" edge="1">
                    <mxGeometry relative="1" as="geometry">
                        <Array as="points">
                            <mxPoint x="1207" y="315"/>
                            <mxPoint x="1207" y="538"/>
                        </Array>
                    </mxGeometry>
                </mxCell>
                <mxCell id="ppBGHj8pFHioXiUgfglE-59" value="ユーザーロール" style="swimlane;fillColor=none;startSize=23;flipH=1;" parent="z7SESXfrJ4md7pIn7zyP-1" vertex="1">
                    <mxGeometry x="1157" y="215" width="137.5" height="100" as="geometry">
                        <mxRectangle x="611" y="280" width="70" height="23" as="alternateBounds"/>
                    </mxGeometry>
                </mxCell>
                <mxCell id="ppBGHj8pFHioXiUgfglE-60" style="edgeStyle=none;html=1;exitX=0.5;exitY=1;exitDx=0;exitDy=0;entryX=0.5;entryY=0;entryDx=0;entryDy=0;dashed=1;" parent="ppBGHj8pFHioXiUgfglE-59" edge="1">
                    <mxGeometry relative="1" as="geometry">
                        <mxPoint x="63.5" y="79" as="sourcePoint"/>
                    </mxGeometry>
                </mxCell>
                <mxCell id="ppBGHj8pFHioXiUgfglE-61" style="edgeStyle=none;html=1;exitX=0.5;exitY=0;exitDx=0;exitDy=0;dashed=1;entryX=0.5;entryY=1;entryDx=0;entryDy=0;" parent="ppBGHj8pFHioXiUgfglE-59" edge="1">
                    <mxGeometry relative="1" as="geometry">
                        <mxPoint x="63.5" y="157.5" as="targetPoint"/>
                    </mxGeometry>
                </mxCell>
                <mxCell id="ppBGHj8pFHioXiUgfglE-62" value="ユーザーロールID: 0102" style="text;html=1;align=center;verticalAlign=middle;resizable=0;points=[];autosize=1;strokeColor=none;fillColor=none;flipH=1;" parent="ppBGHj8pFHioXiUgfglE-59" vertex="1">
                    <mxGeometry x="-2.5" y="30" width="140" height="20" as="geometry"/>
                </mxCell>
                <mxCell id="ppBGHj8pFHioXiUgfglE-63" value="操作: yyy" style="text;html=1;align=center;verticalAlign=middle;resizable=0;points=[];autosize=1;strokeColor=none;fillColor=none;flipH=1;" parent="ppBGHj8pFHioXiUgfglE-59" vertex="1">
                    <mxGeometry x="37.5" y="70" width="60" height="20" as="geometry"/>
                </mxCell>
                <mxCell id="ppBGHj8pFHioXiUgfglE-64" style="edgeStyle=orthogonalEdgeStyle;html=1;exitX=0.5;exitY=1;exitDx=0;exitDy=0;entryX=1;entryY=0.25;entryDx=0;entryDy=0;endArrow=none;endFill=0;" parent="z7SESXfrJ4md7pIn7zyP-1" source="ppBGHj8pFHioXiUgfglE-66" target="ppBGHj8pFHioXiUgfglE-104" edge="1">
                    <mxGeometry relative="1" as="geometry">
                        <Array as="points">
                            <mxPoint x="1388" y="350"/>
                            <mxPoint x="1217" y="350"/>
                            <mxPoint x="1217" y="730"/>
                        </Array>
                    </mxGeometry>
                </mxCell>
                <mxCell id="ppBGHj8pFHioXiUgfglE-65" style="edgeStyle=orthogonalEdgeStyle;html=1;exitX=0.5;exitY=1;exitDx=0;exitDy=0;entryX=0;entryY=0.25;entryDx=0;entryDy=0;endArrow=none;endFill=0;" parent="z7SESXfrJ4md7pIn7zyP-1" source="ppBGHj8pFHioXiUgfglE-66" target="ppBGHj8pFHioXiUgfglE-128" edge="1">
                    <mxGeometry relative="1" as="geometry">
                        <Array as="points">
                            <mxPoint x="1388" y="350"/>
                            <mxPoint x="1217" y="350"/>
                            <mxPoint x="1217" y="725"/>
                        </Array>
                    </mxGeometry>
                </mxCell>
                <mxCell id="ppBGHj8pFHioXiUgfglE-66" value="ユーザーロール" style="swimlane;fillColor=none;startSize=23;flipH=1;" parent="z7SESXfrJ4md7pIn7zyP-1" vertex="1">
                    <mxGeometry x="1319.5" y="240" width="137.5" height="100" as="geometry">
                        <mxRectangle x="611" y="280" width="70" height="23" as="alternateBounds"/>
                    </mxGeometry>
                </mxCell>
                <mxCell id="ppBGHj8pFHioXiUgfglE-67" style="edgeStyle=none;html=1;exitX=0.5;exitY=1;exitDx=0;exitDy=0;entryX=0.5;entryY=0;entryDx=0;entryDy=0;dashed=1;" parent="ppBGHj8pFHioXiUgfglE-66" edge="1">
                    <mxGeometry relative="1" as="geometry">
                        <mxPoint x="63.5" y="79" as="sourcePoint"/>
                    </mxGeometry>
                </mxCell>
                <mxCell id="ppBGHj8pFHioXiUgfglE-68" style="edgeStyle=none;html=1;exitX=0.5;exitY=0;exitDx=0;exitDy=0;dashed=1;entryX=0.5;entryY=1;entryDx=0;entryDy=0;" parent="ppBGHj8pFHioXiUgfglE-66" edge="1">
                    <mxGeometry relative="1" as="geometry">
                        <mxPoint x="63.5" y="157.5" as="targetPoint"/>
                    </mxGeometry>
                </mxCell>
                <mxCell id="ppBGHj8pFHioXiUgfglE-69" value="ユーザーロールID: 0201" style="text;html=1;align=center;verticalAlign=middle;resizable=0;points=[];autosize=1;strokeColor=none;fillColor=none;flipH=1;" parent="ppBGHj8pFHioXiUgfglE-66" vertex="1">
                    <mxGeometry x="-2.5" y="30" width="140" height="20" as="geometry"/>
                </mxCell>
                <mxCell id="ppBGHj8pFHioXiUgfglE-70" value="操作: yyy" style="text;html=1;align=center;verticalAlign=middle;resizable=0;points=[];autosize=1;strokeColor=none;fillColor=none;flipH=1;" parent="ppBGHj8pFHioXiUgfglE-66" vertex="1">
                    <mxGeometry x="37.5" y="70" width="60" height="20" as="geometry"/>
                </mxCell>
                <mxCell id="ppBGHj8pFHioXiUgfglE-71" style="edgeStyle=orthogonalEdgeStyle;html=1;exitX=0.5;exitY=1;exitDx=0;exitDy=0;entryX=1;entryY=0.25;entryDx=0;entryDy=0;endArrow=none;endFill=0;" parent="z7SESXfrJ4md7pIn7zyP-1" source="ppBGHj8pFHioXiUgfglE-73" target="ppBGHj8pFHioXiUgfglE-110" edge="1">
                    <mxGeometry relative="1" as="geometry">
                        <Array as="points">
                            <mxPoint x="1534" y="390"/>
                            <mxPoint x="1227" y="390"/>
                            <mxPoint x="1227" y="865"/>
                        </Array>
                    </mxGeometry>
                </mxCell>
                <mxCell id="ppBGHj8pFHioXiUgfglE-72" style="edgeStyle=orthogonalEdgeStyle;html=1;exitX=0.5;exitY=1;exitDx=0;exitDy=0;entryX=0;entryY=0.25;entryDx=0;entryDy=0;endArrow=none;endFill=0;" parent="z7SESXfrJ4md7pIn7zyP-1" source="ppBGHj8pFHioXiUgfglE-73" target="ppBGHj8pFHioXiUgfglE-134" edge="1">
                    <mxGeometry relative="1" as="geometry">
                        <Array as="points">
                            <mxPoint x="1534" y="390"/>
                            <mxPoint x="1227" y="390"/>
                            <mxPoint x="1227" y="865"/>
                        </Array>
                    </mxGeometry>
                </mxCell>
                <mxCell id="ppBGHj8pFHioXiUgfglE-73" value="ユーザーロール" style="swimlane;fillColor=none;startSize=23;flipH=1;" parent="z7SESXfrJ4md7pIn7zyP-1" vertex="1">
                    <mxGeometry x="1465.5" y="240" width="137.5" height="100" as="geometry">
                        <mxRectangle x="611" y="280" width="70" height="23" as="alternateBounds"/>
                    </mxGeometry>
                </mxCell>
                <mxCell id="ppBGHj8pFHioXiUgfglE-74" style="edgeStyle=none;html=1;exitX=0.5;exitY=1;exitDx=0;exitDy=0;entryX=0.5;entryY=0;entryDx=0;entryDy=0;dashed=1;" parent="ppBGHj8pFHioXiUgfglE-73" edge="1">
                    <mxGeometry relative="1" as="geometry">
                        <mxPoint x="63.5" y="79" as="sourcePoint"/>
                    </mxGeometry>
                </mxCell>
                <mxCell id="ppBGHj8pFHioXiUgfglE-75" style="edgeStyle=none;html=1;exitX=0.5;exitY=0;exitDx=0;exitDy=0;dashed=1;entryX=0.5;entryY=1;entryDx=0;entryDy=0;" parent="ppBGHj8pFHioXiUgfglE-73" edge="1">
                    <mxGeometry relative="1" as="geometry">
                        <mxPoint x="63.5" y="157.5" as="targetPoint"/>
                    </mxGeometry>
                </mxCell>
                <mxCell id="ppBGHj8pFHioXiUgfglE-76" value="ユーザーロールID: 0202" style="text;html=1;align=center;verticalAlign=middle;resizable=0;points=[];autosize=1;strokeColor=none;fillColor=none;flipH=1;" parent="ppBGHj8pFHioXiUgfglE-73" vertex="1">
                    <mxGeometry x="-2.5" y="30" width="140" height="20" as="geometry"/>
                </mxCell>
                <mxCell id="ppBGHj8pFHioXiUgfglE-77" value="操作: yyy" style="text;html=1;align=center;verticalAlign=middle;resizable=0;points=[];autosize=1;strokeColor=none;fillColor=none;flipH=1;" parent="ppBGHj8pFHioXiUgfglE-73" vertex="1">
                    <mxGeometry x="37.5" y="70" width="60" height="20" as="geometry"/>
                </mxCell>
                <mxCell id="ppBGHj8pFHioXiUgfglE-78" style="edgeStyle=none;html=1;exitX=0.5;exitY=1;exitDx=0;exitDy=0;entryX=0.5;entryY=0;entryDx=0;entryDy=0;endArrow=none;endFill=0;" parent="z7SESXfrJ4md7pIn7zyP-1" source="ppBGHj8pFHioXiUgfglE-80" target="ppBGHj8pFHioXiUgfglE-66" edge="1">
                    <mxGeometry relative="1" as="geometry"/>
                </mxCell>
                <mxCell id="ppBGHj8pFHioXiUgfglE-79" style="edgeStyle=none;html=1;exitX=0.5;exitY=1;exitDx=0;exitDy=0;entryX=0.5;entryY=0;entryDx=0;entryDy=0;endArrow=none;endFill=0;" parent="z7SESXfrJ4md7pIn7zyP-1" source="ppBGHj8pFHioXiUgfglE-80" target="ppBGHj8pFHioXiUgfglE-73" edge="1">
                    <mxGeometry relative="1" as="geometry"/>
                </mxCell>
                <mxCell id="ppBGHj8pFHioXiUgfglE-80" value="対象" style="swimlane;fillColor=none;startSize=23;flipH=1;" parent="z7SESXfrJ4md7pIn7zyP-1" vertex="1">
                    <mxGeometry x="1407" y="100" width="110" height="90" as="geometry">
                        <mxRectangle x="611" y="280" width="70" height="23" as="alternateBounds"/>
                    </mxGeometry>
                </mxCell>
                <mxCell id="ppBGHj8pFHioXiUgfglE-81" style="edgeStyle=none;html=1;exitX=0.5;exitY=1;exitDx=0;exitDy=0;entryX=0.5;entryY=0;entryDx=0;entryDy=0;dashed=1;" parent="ppBGHj8pFHioXiUgfglE-80" edge="1">
                    <mxGeometry relative="1" as="geometry">
                        <mxPoint x="63.5" y="79" as="sourcePoint"/>
                    </mxGeometry>
                </mxCell>
                <mxCell id="ppBGHj8pFHioXiUgfglE-82" style="edgeStyle=none;html=1;exitX=0.5;exitY=0;exitDx=0;exitDy=0;dashed=1;entryX=0.5;entryY=1;entryDx=0;entryDy=0;" parent="ppBGHj8pFHioXiUgfglE-80" edge="1">
                    <mxGeometry relative="1" as="geometry">
                        <mxPoint x="63.5" y="157.5" as="targetPoint"/>
                    </mxGeometry>
                </mxCell>
                <mxCell id="ppBGHj8pFHioXiUgfglE-83" value="対象名: xxx" style="text;html=1;align=center;verticalAlign=middle;resizable=0;points=[];autosize=1;strokeColor=none;fillColor=none;flipH=1;" parent="ppBGHj8pFHioXiUgfglE-80" vertex="1">
                    <mxGeometry x="15" y="50" width="80" height="20" as="geometry"/>
                </mxCell>
                <mxCell id="ppBGHj8pFHioXiUgfglE-84" value="対象ID: 02" style="text;html=1;align=center;verticalAlign=middle;resizable=0;points=[];autosize=1;strokeColor=none;fillColor=none;flipH=1;" parent="ppBGHj8pFHioXiUgfglE-80" vertex="1">
                    <mxGeometry x="20" y="30" width="70" height="20" as="geometry"/>
                </mxCell>
                <mxCell id="ppBGHj8pFHioXiUgfglE-85" style="edgeStyle=none;html=1;exitX=0.5;exitY=0;exitDx=0;exitDy=0;entryX=0.5;entryY=1;entryDx=0;entryDy=0;endArrow=none;endFill=0;" parent="z7SESXfrJ4md7pIn7zyP-1" source="ppBGHj8pFHioXiUgfglE-86" target="ppBGHj8pFHioXiUgfglE-33" edge="1">
                    <mxGeometry relative="1" as="geometry"/>
                </mxCell>
                <mxCell id="ppBGHj8pFHioXiUgfglE-86" value="トークン" style="swimlane;fillColor=none;startSize=23;" parent="z7SESXfrJ4md7pIn7zyP-1" vertex="1">
                    <mxGeometry x="1483.25" y="780" width="137.5" height="110" as="geometry">
                        <mxRectangle x="611" y="280" width="70" height="23" as="alternateBounds"/>
                    </mxGeometry>
                </mxCell>
                <mxCell id="ppBGHj8pFHioXiUgfglE-87" style="edgeStyle=none;html=1;exitX=0.5;exitY=1;exitDx=0;exitDy=0;entryX=0.5;entryY=0;entryDx=0;entryDy=0;dashed=1;" parent="ppBGHj8pFHioXiUgfglE-86" edge="1">
                    <mxGeometry relative="1" as="geometry">
                        <mxPoint x="63.5" y="79" as="sourcePoint"/>
                    </mxGeometry>
                </mxCell>
                <mxCell id="ppBGHj8pFHioXiUgfglE-88" style="edgeStyle=none;html=1;exitX=0.5;exitY=0;exitDx=0;exitDy=0;dashed=1;entryX=0.5;entryY=1;entryDx=0;entryDy=0;" parent="ppBGHj8pFHioXiUgfglE-86" edge="1">
                    <mxGeometry relative="1" as="geometry">
                        <mxPoint x="63.5" y="157.5" as="targetPoint"/>
                    </mxGeometry>
                </mxCell>
                <mxCell id="ppBGHj8pFHioXiUgfglE-89" value="IDトークン: xxx" style="text;html=1;align=center;verticalAlign=middle;resizable=0;points=[];autosize=1;strokeColor=none;fillColor=none;" parent="ppBGHj8pFHioXiUgfglE-86" vertex="1">
                    <mxGeometry x="17.5" y="54" width="100" height="20" as="geometry"/>
                </mxCell>
                <mxCell id="ppBGHj8pFHioXiUgfglE-90" value="アクセストークン：yyy" style="text;html=1;align=center;verticalAlign=middle;resizable=0;points=[];autosize=1;strokeColor=none;fillColor=none;" parent="ppBGHj8pFHioXiUgfglE-86" vertex="1">
                    <mxGeometry x="-2.5" y="80" width="140" height="20" as="geometry"/>
                </mxCell>
                <mxCell id="ppBGHj8pFHioXiUgfglE-91" value="トークンID: 02" style="text;html=1;align=center;verticalAlign=middle;resizable=0;points=[];autosize=1;strokeColor=none;fillColor=none;" parent="ppBGHj8pFHioXiUgfglE-86" vertex="1">
                    <mxGeometry x="17.5" y="34" width="100" height="20" as="geometry"/>
                </mxCell>
                <mxCell id="ppBGHj8pFHioXiUgfglE-92" value="権限" style="swimlane;fillColor=none;startSize=23;flipH=1;" parent="z7SESXfrJ4md7pIn7zyP-1" vertex="1">
                    <mxGeometry x="1047" y="390" width="140" height="100" as="geometry">
                        <mxRectangle x="611" y="280" width="70" height="23" as="alternateBounds"/>
                    </mxGeometry>
                </mxCell>
                <mxCell id="ppBGHj8pFHioXiUgfglE-93" style="edgeStyle=none;html=1;exitX=0.5;exitY=1;exitDx=0;exitDy=0;entryX=0.5;entryY=0;entryDx=0;entryDy=0;dashed=1;" parent="ppBGHj8pFHioXiUgfglE-92" edge="1">
                    <mxGeometry relative="1" as="geometry">
                        <mxPoint x="63.5" y="79" as="sourcePoint"/>
                    </mxGeometry>
                </mxCell>
                <mxCell id="ppBGHj8pFHioXiUgfglE-94" style="edgeStyle=none;html=1;exitX=0.5;exitY=0;exitDx=0;exitDy=0;dashed=1;entryX=0.5;entryY=1;entryDx=0;entryDy=0;" parent="ppBGHj8pFHioXiUgfglE-92" edge="1">
                    <mxGeometry relative="1" as="geometry">
                        <mxPoint x="63.5" y="157.5" as="targetPoint"/>
                    </mxGeometry>
                </mxCell>
                <mxCell id="ppBGHj8pFHioXiUgfglE-95" value="権限ID: 01" style="text;html=1;align=center;verticalAlign=middle;resizable=0;points=[];autosize=1;strokeColor=none;fillColor=none;flipH=1;" parent="ppBGHj8pFHioXiUgfglE-92" vertex="1">
                    <mxGeometry x="35" y="30" width="70" height="20" as="geometry"/>
                </mxCell>
                <mxCell id="ppBGHj8pFHioXiUgfglE-96" value="ユーザー: 01" style="text;html=1;align=center;verticalAlign=middle;resizable=0;points=[];autosize=1;strokeColor=none;fillColor=none;flipH=1;" parent="ppBGHj8pFHioXiUgfglE-92" vertex="1">
                    <mxGeometry x="30" y="70" width="80" height="20" as="geometry"/>
                </mxCell>
                <mxCell id="ppBGHj8pFHioXiUgfglE-97" value="ユーザーロールID: 0101" style="text;html=1;align=center;verticalAlign=middle;resizable=0;points=[];autosize=1;strokeColor=none;fillColor=none;flipH=1;" parent="ppBGHj8pFHioXiUgfglE-92" vertex="1">
                    <mxGeometry y="50" width="140" height="20" as="geometry"/>
                </mxCell>
                <mxCell id="ppBGHj8pFHioXiUgfglE-98" value="権限" style="swimlane;fillColor=none;startSize=23;flipH=1;" parent="z7SESXfrJ4md7pIn7zyP-1" vertex="1">
                    <mxGeometry x="1047" y="520" width="140" height="100" as="geometry">
                        <mxRectangle x="611" y="280" width="70" height="23" as="alternateBounds"/>
                    </mxGeometry>
                </mxCell>
                <mxCell id="ppBGHj8pFHioXiUgfglE-99" style="edgeStyle=none;html=1;exitX=0.5;exitY=1;exitDx=0;exitDy=0;entryX=0.5;entryY=0;entryDx=0;entryDy=0;dashed=1;" parent="ppBGHj8pFHioXiUgfglE-98" edge="1">
                    <mxGeometry relative="1" as="geometry">
                        <mxPoint x="63.5" y="79" as="sourcePoint"/>
                    </mxGeometry>
                </mxCell>
                <mxCell id="ppBGHj8pFHioXiUgfglE-100" style="edgeStyle=none;html=1;exitX=0.5;exitY=0;exitDx=0;exitDy=0;dashed=1;entryX=0.5;entryY=1;entryDx=0;entryDy=0;" parent="ppBGHj8pFHioXiUgfglE-98" edge="1">
                    <mxGeometry relative="1" as="geometry">
                        <mxPoint x="63.5" y="157.5" as="targetPoint"/>
                    </mxGeometry>
                </mxCell>
                <mxCell id="ppBGHj8pFHioXiUgfglE-101" value="権限ID: 02" style="text;html=1;align=center;verticalAlign=middle;resizable=0;points=[];autosize=1;strokeColor=none;fillColor=none;flipH=1;" parent="ppBGHj8pFHioXiUgfglE-98" vertex="1">
                    <mxGeometry x="35" y="30" width="70" height="20" as="geometry"/>
                </mxCell>
                <mxCell id="ppBGHj8pFHioXiUgfglE-102" value="ユーザー: 01" style="text;html=1;align=center;verticalAlign=middle;resizable=0;points=[];autosize=1;strokeColor=none;fillColor=none;flipH=1;" parent="ppBGHj8pFHioXiUgfglE-98" vertex="1">
                    <mxGeometry x="30" y="70" width="80" height="20" as="geometry"/>
                </mxCell>
                <mxCell id="ppBGHj8pFHioXiUgfglE-103" value="ユーザーロールID: 0102" style="text;html=1;align=center;verticalAlign=middle;resizable=0;points=[];autosize=1;strokeColor=none;fillColor=none;flipH=1;" parent="ppBGHj8pFHioXiUgfglE-98" vertex="1">
                    <mxGeometry y="50" width="140" height="20" as="geometry"/>
                </mxCell>
                <mxCell id="ppBGHj8pFHioXiUgfglE-104" value="権限" style="swimlane;fillColor=none;startSize=23;flipH=1;" parent="z7SESXfrJ4md7pIn7zyP-1" vertex="1">
                    <mxGeometry x="1047" y="705" width="140" height="100" as="geometry">
                        <mxRectangle x="611" y="280" width="70" height="23" as="alternateBounds"/>
                    </mxGeometry>
                </mxCell>
                <mxCell id="ppBGHj8pFHioXiUgfglE-105" style="edgeStyle=none;html=1;exitX=0.5;exitY=1;exitDx=0;exitDy=0;entryX=0.5;entryY=0;entryDx=0;entryDy=0;dashed=1;" parent="ppBGHj8pFHioXiUgfglE-104" edge="1">
                    <mxGeometry relative="1" as="geometry">
                        <mxPoint x="63.5" y="79" as="sourcePoint"/>
                    </mxGeometry>
                </mxCell>
                <mxCell id="ppBGHj8pFHioXiUgfglE-106" style="edgeStyle=none;html=1;exitX=0.5;exitY=0;exitDx=0;exitDy=0;dashed=1;entryX=0.5;entryY=1;entryDx=0;entryDy=0;" parent="ppBGHj8pFHioXiUgfglE-104" edge="1">
                    <mxGeometry relative="1" as="geometry">
                        <mxPoint x="63.5" y="157.5" as="targetPoint"/>
                    </mxGeometry>
                </mxCell>
                <mxCell id="ppBGHj8pFHioXiUgfglE-107" value="権限ID: 03" style="text;html=1;align=center;verticalAlign=middle;resizable=0;points=[];autosize=1;strokeColor=none;fillColor=none;flipH=1;" parent="ppBGHj8pFHioXiUgfglE-104" vertex="1">
                    <mxGeometry x="35" y="30" width="70" height="20" as="geometry"/>
                </mxCell>
                <mxCell id="ppBGHj8pFHioXiUgfglE-108" value="ユーザー: 01" style="text;html=1;align=center;verticalAlign=middle;resizable=0;points=[];autosize=1;strokeColor=none;fillColor=none;flipH=1;" parent="ppBGHj8pFHioXiUgfglE-104" vertex="1">
                    <mxGeometry x="30" y="70" width="80" height="20" as="geometry"/>
                </mxCell>
                <mxCell id="ppBGHj8pFHioXiUgfglE-109" value="ユーザーロールID: 0201" style="text;html=1;align=center;verticalAlign=middle;resizable=0;points=[];autosize=1;strokeColor=none;fillColor=none;flipH=1;" parent="ppBGHj8pFHioXiUgfglE-104" vertex="1">
                    <mxGeometry y="50" width="140" height="20" as="geometry"/>
                </mxCell>
                <mxCell id="ppBGHj8pFHioXiUgfglE-110" value="権限" style="swimlane;fillColor=none;startSize=23;flipH=1;" parent="z7SESXfrJ4md7pIn7zyP-1" vertex="1">
                    <mxGeometry x="1047" y="840" width="140" height="100" as="geometry">
                        <mxRectangle x="611" y="280" width="70" height="23" as="alternateBounds"/>
                    </mxGeometry>
                </mxCell>
                <mxCell id="ppBGHj8pFHioXiUgfglE-111" style="edgeStyle=none;html=1;exitX=0.5;exitY=1;exitDx=0;exitDy=0;entryX=0.5;entryY=0;entryDx=0;entryDy=0;dashed=1;" parent="ppBGHj8pFHioXiUgfglE-110" edge="1">
                    <mxGeometry relative="1" as="geometry">
                        <mxPoint x="63.5" y="79" as="sourcePoint"/>
                    </mxGeometry>
                </mxCell>
                <mxCell id="ppBGHj8pFHioXiUgfglE-112" style="edgeStyle=none;html=1;exitX=0.5;exitY=0;exitDx=0;exitDy=0;dashed=1;entryX=0.5;entryY=1;entryDx=0;entryDy=0;" parent="ppBGHj8pFHioXiUgfglE-110" edge="1">
                    <mxGeometry relative="1" as="geometry">
                        <mxPoint x="63.5" y="157.5" as="targetPoint"/>
                    </mxGeometry>
                </mxCell>
                <mxCell id="ppBGHj8pFHioXiUgfglE-113" value="権限ID: 04" style="text;html=1;align=center;verticalAlign=middle;resizable=0;points=[];autosize=1;strokeColor=none;fillColor=none;flipH=1;" parent="ppBGHj8pFHioXiUgfglE-110" vertex="1">
                    <mxGeometry x="35" y="30" width="70" height="20" as="geometry"/>
                </mxCell>
                <mxCell id="ppBGHj8pFHioXiUgfglE-114" value="ユーザー: 01" style="text;html=1;align=center;verticalAlign=middle;resizable=0;points=[];autosize=1;strokeColor=none;fillColor=none;flipH=1;" parent="ppBGHj8pFHioXiUgfglE-110" vertex="1">
                    <mxGeometry x="30" y="70" width="80" height="20" as="geometry"/>
                </mxCell>
                <mxCell id="ppBGHj8pFHioXiUgfglE-115" value="ユーザーロールID: 0202" style="text;html=1;align=center;verticalAlign=middle;resizable=0;points=[];autosize=1;strokeColor=none;fillColor=none;flipH=1;" parent="ppBGHj8pFHioXiUgfglE-110" vertex="1">
                    <mxGeometry y="50" width="140" height="20" as="geometry"/>
                </mxCell>
                <mxCell id="ppBGHj8pFHioXiUgfglE-116" value="権限" style="swimlane;fillColor=none;startSize=23;flipH=1;" parent="z7SESXfrJ4md7pIn7zyP-1" vertex="1">
                    <mxGeometry x="1297" y="405" width="140" height="100" as="geometry">
                        <mxRectangle x="611" y="280" width="70" height="23" as="alternateBounds"/>
                    </mxGeometry>
                </mxCell>
                <mxCell id="ppBGHj8pFHioXiUgfglE-117" style="edgeStyle=none;html=1;exitX=0.5;exitY=1;exitDx=0;exitDy=0;entryX=0.5;entryY=0;entryDx=0;entryDy=0;dashed=1;" parent="ppBGHj8pFHioXiUgfglE-116" edge="1">
                    <mxGeometry relative="1" as="geometry">
                        <mxPoint x="63.5" y="79" as="sourcePoint"/>
                    </mxGeometry>
                </mxCell>
                <mxCell id="ppBGHj8pFHioXiUgfglE-118" style="edgeStyle=none;html=1;exitX=0.5;exitY=0;exitDx=0;exitDy=0;dashed=1;entryX=0.5;entryY=1;entryDx=0;entryDy=0;" parent="ppBGHj8pFHioXiUgfglE-116" edge="1">
                    <mxGeometry relative="1" as="geometry">
                        <mxPoint x="63.5" y="157.5" as="targetPoint"/>
                    </mxGeometry>
                </mxCell>
                <mxCell id="ppBGHj8pFHioXiUgfglE-119" value="権限ID: 05" style="text;html=1;align=center;verticalAlign=middle;resizable=0;points=[];autosize=1;strokeColor=none;fillColor=none;flipH=1;" parent="ppBGHj8pFHioXiUgfglE-116" vertex="1">
                    <mxGeometry x="35" y="30" width="70" height="20" as="geometry"/>
                </mxCell>
                <mxCell id="ppBGHj8pFHioXiUgfglE-120" value="ユーザー: 02" style="text;html=1;align=center;verticalAlign=middle;resizable=0;points=[];autosize=1;strokeColor=none;fillColor=none;flipH=1;" parent="ppBGHj8pFHioXiUgfglE-116" vertex="1">
                    <mxGeometry x="30" y="70" width="80" height="20" as="geometry"/>
                </mxCell>
                <mxCell id="ppBGHj8pFHioXiUgfglE-121" value="ユーザーロールID: 0101" style="text;html=1;align=center;verticalAlign=middle;resizable=0;points=[];autosize=1;strokeColor=none;fillColor=none;flipH=1;" parent="ppBGHj8pFHioXiUgfglE-116" vertex="1">
                    <mxGeometry y="50" width="140" height="20" as="geometry"/>
                </mxCell>
                <mxCell id="ppBGHj8pFHioXiUgfglE-122" value="権限" style="swimlane;fillColor=none;startSize=23;flipH=1;" parent="z7SESXfrJ4md7pIn7zyP-1" vertex="1">
                    <mxGeometry x="1297" y="520" width="140" height="100" as="geometry">
                        <mxRectangle x="611" y="280" width="70" height="23" as="alternateBounds"/>
                    </mxGeometry>
                </mxCell>
                <mxCell id="ppBGHj8pFHioXiUgfglE-123" style="edgeStyle=none;html=1;exitX=0.5;exitY=1;exitDx=0;exitDy=0;entryX=0.5;entryY=0;entryDx=0;entryDy=0;dashed=1;" parent="ppBGHj8pFHioXiUgfglE-122" edge="1">
                    <mxGeometry relative="1" as="geometry">
                        <mxPoint x="63.5" y="79" as="sourcePoint"/>
                    </mxGeometry>
                </mxCell>
                <mxCell id="ppBGHj8pFHioXiUgfglE-124" style="edgeStyle=none;html=1;exitX=0.5;exitY=0;exitDx=0;exitDy=0;dashed=1;entryX=0.5;entryY=1;entryDx=0;entryDy=0;" parent="ppBGHj8pFHioXiUgfglE-122" edge="1">
                    <mxGeometry relative="1" as="geometry">
                        <mxPoint x="63.5" y="157.5" as="targetPoint"/>
                    </mxGeometry>
                </mxCell>
                <mxCell id="ppBGHj8pFHioXiUgfglE-125" value="権限ID: 06" style="text;html=1;align=center;verticalAlign=middle;resizable=0;points=[];autosize=1;strokeColor=none;fillColor=none;flipH=1;" parent="ppBGHj8pFHioXiUgfglE-122" vertex="1">
                    <mxGeometry x="35" y="30" width="70" height="20" as="geometry"/>
                </mxCell>
                <mxCell id="ppBGHj8pFHioXiUgfglE-126" value="ユーザー: 02" style="text;html=1;align=center;verticalAlign=middle;resizable=0;points=[];autosize=1;strokeColor=none;fillColor=none;flipH=1;" parent="ppBGHj8pFHioXiUgfglE-122" vertex="1">
                    <mxGeometry x="30" y="70" width="80" height="20" as="geometry"/>
                </mxCell>
                <mxCell id="ppBGHj8pFHioXiUgfglE-127" value="ユーザーロールID: 0102" style="text;html=1;align=center;verticalAlign=middle;resizable=0;points=[];autosize=1;strokeColor=none;fillColor=none;flipH=1;" parent="ppBGHj8pFHioXiUgfglE-122" vertex="1">
                    <mxGeometry y="50" width="140" height="20" as="geometry"/>
                </mxCell>
                <mxCell id="ppBGHj8pFHioXiUgfglE-128" value="権限" style="swimlane;fillColor=none;startSize=23;flipH=1;" parent="z7SESXfrJ4md7pIn7zyP-1" vertex="1">
                    <mxGeometry x="1297" y="700" width="140" height="100" as="geometry">
                        <mxRectangle x="611" y="280" width="70" height="23" as="alternateBounds"/>
                    </mxGeometry>
                </mxCell>
                <mxCell id="ppBGHj8pFHioXiUgfglE-129" style="edgeStyle=none;html=1;exitX=0.5;exitY=1;exitDx=0;exitDy=0;entryX=0.5;entryY=0;entryDx=0;entryDy=0;dashed=1;" parent="ppBGHj8pFHioXiUgfglE-128" edge="1">
                    <mxGeometry relative="1" as="geometry">
                        <mxPoint x="63.5" y="79" as="sourcePoint"/>
                    </mxGeometry>
                </mxCell>
                <mxCell id="ppBGHj8pFHioXiUgfglE-130" style="edgeStyle=none;html=1;exitX=0.5;exitY=0;exitDx=0;exitDy=0;dashed=1;entryX=0.5;entryY=1;entryDx=0;entryDy=0;" parent="ppBGHj8pFHioXiUgfglE-128" edge="1">
                    <mxGeometry relative="1" as="geometry">
                        <mxPoint x="63.5" y="157.5" as="targetPoint"/>
                    </mxGeometry>
                </mxCell>
                <mxCell id="ppBGHj8pFHioXiUgfglE-131" value="権限ID: 07" style="text;html=1;align=center;verticalAlign=middle;resizable=0;points=[];autosize=1;strokeColor=none;fillColor=none;flipH=1;" parent="ppBGHj8pFHioXiUgfglE-128" vertex="1">
                    <mxGeometry x="35" y="30" width="70" height="20" as="geometry"/>
                </mxCell>
                <mxCell id="ppBGHj8pFHioXiUgfglE-132" value="ユーザー: 02" style="text;html=1;align=center;verticalAlign=middle;resizable=0;points=[];autosize=1;strokeColor=none;fillColor=none;flipH=1;" parent="ppBGHj8pFHioXiUgfglE-128" vertex="1">
                    <mxGeometry x="30" y="70" width="80" height="20" as="geometry"/>
                </mxCell>
                <mxCell id="ppBGHj8pFHioXiUgfglE-133" value="ユーザーロールID: 0201" style="text;html=1;align=center;verticalAlign=middle;resizable=0;points=[];autosize=1;strokeColor=none;fillColor=none;flipH=1;" parent="ppBGHj8pFHioXiUgfglE-128" vertex="1">
                    <mxGeometry y="50" width="140" height="20" as="geometry"/>
                </mxCell>
                <mxCell id="ppBGHj8pFHioXiUgfglE-134" value="権限" style="swimlane;fillColor=none;startSize=23;flipH=1;" parent="z7SESXfrJ4md7pIn7zyP-1" vertex="1">
                    <mxGeometry x="1297" y="840" width="140" height="100" as="geometry">
                        <mxRectangle x="611" y="280" width="70" height="23" as="alternateBounds"/>
                    </mxGeometry>
                </mxCell>
                <mxCell id="ppBGHj8pFHioXiUgfglE-135" style="edgeStyle=none;html=1;exitX=0.5;exitY=1;exitDx=0;exitDy=0;entryX=0.5;entryY=0;entryDx=0;entryDy=0;dashed=1;" parent="ppBGHj8pFHioXiUgfglE-134" edge="1">
                    <mxGeometry relative="1" as="geometry">
                        <mxPoint x="63.5" y="79" as="sourcePoint"/>
                    </mxGeometry>
                </mxCell>
                <mxCell id="ppBGHj8pFHioXiUgfglE-136" style="edgeStyle=none;html=1;exitX=0.5;exitY=0;exitDx=0;exitDy=0;dashed=1;entryX=0.5;entryY=1;entryDx=0;entryDy=0;" parent="ppBGHj8pFHioXiUgfglE-134" edge="1">
                    <mxGeometry relative="1" as="geometry">
                        <mxPoint x="63.5" y="157.5" as="targetPoint"/>
                    </mxGeometry>
                </mxCell>
                <mxCell id="ppBGHj8pFHioXiUgfglE-137" value="権限ID: 08" style="text;html=1;align=center;verticalAlign=middle;resizable=0;points=[];autosize=1;strokeColor=none;fillColor=none;flipH=1;" parent="ppBGHj8pFHioXiUgfglE-134" vertex="1">
                    <mxGeometry x="35" y="30" width="70" height="20" as="geometry"/>
                </mxCell>
                <mxCell id="ppBGHj8pFHioXiUgfglE-138" value="ユーザー: 02" style="text;html=1;align=center;verticalAlign=middle;resizable=0;points=[];autosize=1;strokeColor=none;fillColor=none;flipH=1;" parent="ppBGHj8pFHioXiUgfglE-134" vertex="1">
                    <mxGeometry x="30" y="70" width="80" height="20" as="geometry"/>
                </mxCell>
                <mxCell id="ppBGHj8pFHioXiUgfglE-139" value="ユーザーロールID: 0202" style="text;html=1;align=center;verticalAlign=middle;resizable=0;points=[];autosize=1;strokeColor=none;fillColor=none;flipH=1;" parent="ppBGHj8pFHioXiUgfglE-134" vertex="1">
                    <mxGeometry y="50" width="140" height="20" as="geometry"/>
                </mxCell>
                <mxCell id="bihsekVURNuByNspL56t-0" value="Service :&lt;br&gt;&amp;nbsp; info&lt;br&gt;Context :&lt;br&gt;&amp;nbsp; authControl" style="shape=note;whiteSpace=wrap;html=1;backgroundOutline=1;darkOpacity=0.05;fillColor=none;align=left;" parent="z7SESXfrJ4md7pIn7zyP-1" vertex="1">
                    <mxGeometry x="827" width="92" height="100" as="geometry"/>
                </mxCell>
            </root>
        </mxGraphModel>
    </diagram>
</mxfile>
